<svg xmlns="http://www.w3.org/2000/svg" width="1734" height="972" version="1.0"><path fill="#fff" d="M877.4 6.2c-14.1 14.9-23.9 33.7-27.3 52.3-2.4 13.7-2.2 31.2.5 40.4.7 2.3.6 2.4-3.3 1.8-3.7-.6-23-6.7-27.8-8.7-4-1.7-18.2-5.8-25.5-7.3-15.8-3.3-19.9-3.8-33.5-4-12.7-.1-14.5.1-19 2.2-2.7 1.2-8.4 3.4-12.5 4.8l-7.4 2.5-5.1-2.7c-2.7-1.4-7.7-4.2-11-6-6.1-3.5-9.9-4.3-11-2.5-1.9 3.1-2.5-.3-2.5-14 0-14.7 0-15-2.2-15.5-1.3-.2-16.5-.6-33.8-.9-17.3-.2-32.8-.7-34.5-1.1l-3-.6 3.4 3c4.9 4.4 13.9 8.8 36.6 18.1 11 4.6 22.2 9.4 24.8 10.7 4.7 2.3 4.9 2.6 4.3 5.7-.3 1.8-.7 57.2-.7 123.2-.1 91.7.2 121.4 1.1 126.2.7 3.4 1.1 6.5.8 6.8-1.1 1.1-3.5-.9-5.3-4.4-1.1-2-4-7.3-6.5-11.7-4.7-8.3-6-10.9-10.5-21-1.5-3.3-3.5-7.8-4.5-10-.9-2.2-2.1-6.3-2.5-9.2-.4-2.9-1.2-5.6-1.8-6.1-1.5-1.2-13.6-4-34.2-7.7-4.9-.9-10.3-2-12-2.5-1.6-.5-9.5-1.6-17.5-2.6-14.5-1.7-20-3.6-20-6.8 0-3 8.1-6.6 14.8-6.6 3.1 0 16.5-2.3 23.2-4 1.9-.5 7.6-1.6 12.5-2.5 25.4-4.5 27.5-5.1 27.5-7.3.1-13.6 2-34.7 3.9-42.7 3.5-14.5 4.7-19.1 7.8-28.4 1.9-5.8 4.1-11.4 4.9-12.5 2.2-3.2 1.7-4.9-2.7-8.1-2.2-1.7-17-16.1-32.7-32-43.5-44-46.2-46.6-53.9-52.8-4-3.2-7.3-6.2-7.3-6.6 0-.5 10.6-.6 23.5-.3 21.8.4 23.5.4 23.5-1.3 0-3-4-7.5-8.8-9.6-2.6-1.2-7.4-3.4-10.7-4.9-9-4.1-38.6-16.2-50-20.5-5.5-2-10.9-4-12-4.5-3.8-1.6-10.5-4-11-4-2.1 0 2.2 5 20.8 24.2 11.6 12.1 21.7 23 22.4 24.1 1.8 3.2 1.8 192.8.1 194.5-.7.7-3 1.2-5.2 1.2-5.5 0-15.2 2.9-17.2 5.1-2.9 3.2-.4 4.6 9.4 5.1 10.6.6 14.2 2.3 16.1 7.3 2.6 7.3 5 6.9-56.4 7.5-30 .3-55 .3-55.5.2-.7-.3-1-39.7-1-114.7V50.1l-3.4-.9c-2-.6-28.1-.6-67.2-.1-35.1.5-137.2.8-226.9.8l-163-.2-.3 116.5-.2 116.5 18.7.6c10.4.4 34.9.7 54.6.7H108v115.5c0 63.5.3 115.5.8 115.5 2.4-.2 10.6-8 63.7-60.8l58.5-58.4-.5-11.1c-.3-6.2-.7-31.4-1-56.1-.4-34.9-.2-45.6.7-47.9.7-1.7 3.9-8.3 7.2-14.6l15.3-30.6c5.2-10.5 11-22.2 13-26 8.2-15.9 38.4-75.8 43.7-86.5 3.1-6.3 6.1-12.2 6.5-13 7.7-14.5 17.2-34.5 18.6-39 1.3-4.4 4.5-10 5.6-10 .7 0 .9.9.6 2.3-.4 1.2-.7 76.5-.8 167.3-.1 155.2 0 165.4 1.6 168 3.2 5.3 116.9 117.3 118 116.3.6-.7 1-21.7 1-59.2v-58.2l55.5-55.3c30.5-30.3 55.5-55.2 55.5-55.2s-.1 24.9-.3 55.3l-.3 55.3 7.3 6.9c4 3.8 26.9 26.2 50.9 49.9 55.5 55 60.3 59.6 62.2 59.6 1.3 0 1.4-6.5 1.1-53.7-.4-48-.6-53.9-2.1-55.5-.9-1-2-1.8-2.5-1.8-2 0-14.8 9.2-23.3 16.8-14.7 13.2-17.7 13.7-9.2 1.5 3-4.3 8.7-13.7 12.7-20.8 4-7.2 8.1-14.2 9.2-15.7 1-1.5 3.4-5.7 5.2-9.5 6.6-13.2 8.9-13.7 6.3-1.5-3.6 17.6-4 21.8-2.2 24.6.9 1.4 2.4 2.7 3.3 3 1 .2 2.7.7 3.9 1.1 1.7.5 4-1.1 11.4-7.5 12.2-10.8 13.1-11.2 17.2-7.3 15.4 14.4 42.4 30.8 65.2 39.5 15.4 6 20.3 7.3 42.3 11.7 8.9 1.8 21.4 1.4 26.6-.9l4.6-1.9 4.7 2.5c4.3 2.5 5.1 2.6 13.7 2 5-.4 10.7-1.1 12.6-1.6 1.9-.5 6.7-1.7 10.5-2.6 8.1-2 21.7-6.3 29.3-9.3 2.9-1.2 5.9-2.1 6.6-2.1 1.2 0 33.1 22.2 41.9 29.3 2.3 1.8 6.9 5.1 10.2 7.2 11.7 7.6 24.1 16.9 32.3 24.3 8 7.3 10.6 8.5 8.5 3.9-.6-1.2-1.9-4.5-2.8-7.2-2.5-6.9-10.8-22.5-16.7-31.4-6.8-10.1-19.8-30.9-19.8-31.7 0-.3-1.3-2.4-2.9-4.7-1.6-2.3-4.3-6.3-6-8.8l-3.1-4.7 8.8-7.3c17.1-14.5 29.2-27.3 45.5-48.1l1.8-2.3-.7 3c-1 4.6-1.7 101-.9 136.2.6 26.2 1 31.3 2.2 31.3 1.6 0 103.7-101.4 109.7-109.1 2.2-2.7 4.5-4.8 5.2-4.7.6.2 26.3 25.2 57 55.7 30.8 30.4 56.8 56 58 56.7 1.6 1.1 12.6 1.4 59 1.4l56.9.1.5-59.5.5-59.5 59 58.4c32.5 32.1 59.3 58.4 59.8 58.5.4 0 .7-50.4.7-112.1 0-70.1.4-111.9.9-111.7.6.1 21.6 20.8 46.8 45.7 40.2 40 72.5 71.9 161.1 159.6l22.2 22V50h-120v54.5c0 33.1-.4 54.5-.9 54.5s-25.7-24.5-55.9-54.5l-55-54.5H1382l-.1 56.7v56.8l-3.2-4c-1.7-2.2-26.8-27.7-55.7-56.8L1270.6 50H1150.3l-23.4 23.3c-63.4 63-73.6 72.7-76.7 72.7-2.3 0-3.2-.6-4.2-2.9-1-2.5-.8-3.8 1.6-9.7 1.5-3.8 6.6-13.4 11.4-21.4 4.8-8 11.7-20.1 15.3-27 3.5-6.9 9.4-17.2 13.1-22.9 3.6-5.7 6.6-10.8 6.6-11.3 0-1.9-6-.6-9.6 2.2-2.2 1.6-5.9 4.4-8.3 6.2-2.3 1.8-4.9 3.8-5.5 4.5-.7.6-6.4 4.8-12.7 9.4-6.2 4.5-14.3 10.7-17.9 13.6-11.7 9.7-20.7 16.2-23.4 16.9-2.2.5-3.6-.1-7.4-3.3-15.7-13-33.6-19.3-54.8-19.3-17.4 0-34.8 3.7-55.2 11.7-18.6 7.3-33.2 10.8-34.7 8.3-.9-1.4 1.1-18.3 3.2-26.5 3.5-14.1 10.2-29.3 16.2-36.6 1.6-1.9 6.8-5.9 11.5-8.8 4.8-2.9 9.1-6.1 9.6-7.1.9-1.6 0-3-5.1-8.4C894.6 7.9 885.2 0 883.8 0c-.3 0-3.2 2.8-6.4 6.2zm174.6 156c1.1 1.8 2.3 4.4 2.6 5.8.3 1.4.9 3.4 1.4 4.5 3.4 8.1 8 32.6 8.9 47l.6 11 6.5 1.1c6.6 1.2 11.4 2.2 23 4.9 19.1 4.5 46.4 10.3 65.5 14 4.4.9 9.8 2 12 2.5 14.1 3.3 38.6 9.2 41.5 10 1.9.5 7.1 1.7 11.5 2.5 4.4.9 9.6 2.1 11.5 2.6 1.9.5 9.2 1.5 16.3 2.2 7 .7 12.9 1.7 13 2.2.1.6-2.3 1.4-5.3 1.8-10.1 1.5-21.4 3.6-29 5.3-4.1.9-9.5 2-12 2.4-6.6 1.2-26 4.7-29.5 5.3-1.6.3-7.3 1.3-12.5 2.2-5.2.9-11.7 2.1-14.5 2.5-11.2 2-23.3 4.1-27.5 5-2.5.4-8.5 1.6-13.5 2.5-4.9.9-11 2.1-13.5 2.6s-8.3 1.6-13 2.4c-4.7.8-10.5 1.9-13 2.4s-8.1 1.6-12.5 2.5c-18.4 3.5-26.6 7-28 11.8-1 3.6-4.4 10.8-5.1 10.8-.3 0-.3-1.9.1-4.3.4-2.3 1-39.9 1.3-83.6l.7-79.3 3.5-2.9c4.4-3.7 6.6-3.7 9 .3zm329.2 229c-.5.5-2.8-1.7-5.2-4.8-3.5-4.7-63.6-64.8-96-96.1l-8.5-8.2 53.1-53.3c29.3-29.3 54-54.9 55-56.8 1.9-3.4 1.9-1.2 2.2 107.4.1 61.1-.2 111.4-.6 111.8zM911.7 236.4c2.6 2.3 2.7 2.7 2.8 12.2 0 10.8-1 14.5-7.3 26.4-5.4 10.1-10.1 16.8-16.7 23.6-4.9 5.2-6.4 6.2-8.3 5.8-2.8-.8-5.9-4.6-7.1-8.9-.9-3.5.3-20.6 2-27 3.4-12.6 13.3-25.7 23.6-31.3 7-3.8 7.5-3.8 11-.8zm-89.2 1.5c10.9 6.2 21.7 21.3 24.4 33.9 1.8 8.5 1.4 24-.7 28.2-2.5 5.1-6.7 5.3-12 .6-5.8-5.3-15-18.7-21.2-31.1-5.5-10.9-5.5-11-5.5-20.1 0-8.4.2-9.5 2.4-11.8 3.2-3.4 6.4-3.3 12.6.3z"/><path fill="#fff" d="M113.3 511.9c-.5 1.1-1 2.6-1 3.3-.1 1.4-5.7 12.9-15.7 31.8-3.3 6.3-12.3 23.9-20 39-18 35.2-24.5 47.9-52.6 101.5l-23 44-.5 116.2L0 964h120.2l-.6-55.5-.6-55.5 16.9-16.7c33.2-32.8 90.6-88.8 91.5-89.1.5-.2.9 44.8.9 108.2V964h59.8l59.7-.1 56.8-56.4 56.8-56.4-.1-54.8c0-30.1-.1-55.4 0-56.2 0-1.2 7-1.3 44.3-1 24.3.1 49.8.2 56.7.1l12.6-.2 49.5-49.3c27.3-27 51.5-51.3 53.8-54 2.3-2.6 4.4-4.7 4.6-4.7.3 0 .5 74.1.5 164.7v175.5l13.2-12.3c7.2-6.8 30.7-29.7 52.2-50.9 21.5-21.2 42.8-42.1 47.4-46.4l8.2-7.9V739.3l55.5.1 55.4.1 19.7-19.5c10.8-10.7 28.5-28.6 39.3-39.6 10.8-11.1 23.9-23.8 29.2-28.2 5.3-4.5 12-11.1 15-14.9l5.4-6.8.3 166.7.2 166.8h174.8l174.7-.1-11-10.2c-6-5.6-26.8-26-46-45.2-19.3-19.3-39.9-39.5-45.8-44.9l-10.7-9.9V510l-117.7.2-117.8.3-.3 54.3-.2 54.4-4.9-5.9c-2.7-3.2-18.2-18.6-34.3-34.3-16.1-15.6-38.2-37.5-49.2-48.7L916.1 510H797.9l-54.7 54.6c-46.7 46.4-55.2 54.5-57.3 54.2-1.8-.2-18.6-16.3-57.1-54.6L574.2 510h-58.7l-58.7.1-56.7 56.2c-50.6 50.1-56.8 56.6-57.4 60-.3 2.1-.5 26.5-.2 54.2.2 27.8.1 50.5-.3 50.5-1.6 0-4-5.5-6.5-15-.5-2-19.7-40.8-43.8-88.5-1.9-3.9-6.8-13.8-10.9-22-15.8-32-46.6-92.7-47.8-94.1-1-1.2-10.3-1.4-60-1.4-57.1 0-58.9.1-59.9 1.9zm14.2 12.6c4.1 4.9 28.5 29.8 54.2 55.3l46.6 46.3V733H119.6l-.6-28.7c-1-41.5-.9-189.5.1-189.1.5.1 4.3 4.3 8.4 9.3zM1493 516.2c-3 3.5-8.3 9-11.8 12.3-3.5 3.3-26.6 26.1-51.3 50.7l-44.9 44.7v113.3c.1 87 .4 113.8 1.3 115.5.7 1.1 5 5.7 9.7 10.2 4.7 4.4 29.7 29 55.5 54.6l47 46.5h121l57.5-56.8c37.4-37 57.1-57.2 56.6-58-.5-.9-26.6-1.2-115.2-1.2H1504V739.5h55.9c44.7 0 56.3-.3 57.3-1.3 1.1-1.1-8.6-11.2-54.4-56.8l-55.6-55.4h112.9c99.9 0 112.9-.2 112.9-1.5 0-.8-1.2-2.5-2.7-3.7-2.6-2.1-81-79.7-102-101.1l-9.7-9.7h-120.2l-5.4 6.2z"/></svg>